<mxfile host="65bd71144e">
    <diagram id="7IlNa3Y2V-45Ld-URZqr" name="Page-1">
        <mxGraphModel dx="1478" dy="540" grid="1" gridSize="10" guides="1" tooltips="1" connect="1" arrows="1" fold="1" page="1" pageScale="1" pageWidth="850" pageHeight="1100" math="0" shadow="0">
            <root>
                <mxCell id="0"/>
                <mxCell id="1" parent="0"/>
                <mxCell id="59" style="edgeStyle=none;html=1;entryX=0.5;entryY=0;entryDx=0;entryDy=0;strokeWidth=6;" parent="1" source="2" target="58" edge="1">
                    <mxGeometry relative="1" as="geometry">
                        <Array as="points">
                            <mxPoint x="-40" y="350"/>
                        </Array>
                    </mxGeometry>
                </mxCell>
                <mxCell id="125" style="edgeStyle=none;html=1;entryX=0.5;entryY=0;entryDx=0;entryDy=0;strokeWidth=6;" parent="1" source="2" target="124" edge="1">
                    <mxGeometry relative="1" as="geometry">
                        <Array as="points">
                            <mxPoint x="140" y="420"/>
                            <mxPoint x="308" y="420"/>
                            <mxPoint x="362" y="420"/>
                        </Array>
                    </mxGeometry>
                </mxCell>
                <mxCell id="144" style="edgeStyle=none;html=1;entryX=0.5;entryY=0;entryDx=0;entryDy=0;fontSize=27;strokeWidth=4;" parent="1" source="2" target="134" edge="1">
                    <mxGeometry relative="1" as="geometry">
                        <Array as="points">
                            <mxPoint x="670" y="351"/>
                        </Array>
                    </mxGeometry>
                </mxCell>
                <mxCell id="157" style="edgeStyle=none;html=1;entryX=0.5;entryY=0;entryDx=0;entryDy=0;strokeWidth=4;" parent="1" source="2" target="133" edge="1">
                    <mxGeometry relative="1" as="geometry">
                        <Array as="points">
                            <mxPoint x="950" y="350"/>
                        </Array>
                    </mxGeometry>
                </mxCell>
                <mxCell id="158" style="edgeStyle=none;html=1;entryX=0.5;entryY=0;entryDx=0;entryDy=0;strokeWidth=4;" parent="1" source="2" target="135" edge="1">
                    <mxGeometry relative="1" as="geometry">
                        <Array as="points">
                            <mxPoint x="1230" y="353"/>
                        </Array>
                    </mxGeometry>
                </mxCell>
                <mxCell id="159" style="edgeStyle=none;html=1;entryX=0.5;entryY=0;entryDx=0;entryDy=0;strokeWidth=4;" parent="1" source="2" target="136" edge="1">
                    <mxGeometry relative="1" as="geometry">
                        <Array as="points">
                            <mxPoint x="1500" y="352"/>
                        </Array>
                    </mxGeometry>
                </mxCell>
                <mxCell id="165" style="edgeStyle=none;html=1;exitX=0.5;exitY=0;exitDx=0;exitDy=0;entryX=0.1;entryY=0.5;entryDx=0;entryDy=0;entryPerimeter=0;strokeWidth=10;" parent="1" source="2" target="166" edge="1">
                    <mxGeometry relative="1" as="geometry">
                        <mxPoint x="-310" y="1330" as="targetPoint"/>
                        <mxPoint x="100" y="290" as="sourcePoint"/>
                        <Array as="points">
                            <mxPoint x="140" y="290"/>
                            <mxPoint x="-320" y="290"/>
                            <mxPoint x="-320" y="1425"/>
                        </Array>
                    </mxGeometry>
                </mxCell>
                <mxCell id="177" style="edgeStyle=none;html=1;entryX=0.5;entryY=0;entryDx=0;entryDy=0;strokeWidth=4;" parent="1" source="2" target="137" edge="1">
                    <mxGeometry relative="1" as="geometry">
                        <Array as="points">
                            <mxPoint x="1820" y="350"/>
                        </Array>
                    </mxGeometry>
                </mxCell>
                <mxCell id="184" style="edgeStyle=none;html=1;strokeWidth=18;exitX=0.5;exitY=0;exitDx=0;exitDy=0;entryX=0.1;entryY=0.5;entryDx=0;entryDy=0;entryPerimeter=0;" parent="1" source="2" edge="1" target="189">
                    <mxGeometry relative="1" as="geometry">
                        <mxPoint x="2050.6669108072915" y="1470" as="targetPoint"/>
                        <mxPoint x="130" y="310" as="sourcePoint"/>
                        <Array as="points">
                            <mxPoint x="140" y="260"/>
                            <mxPoint x="-530" y="260"/>
                            <mxPoint x="-527" y="2070"/>
                            <mxPoint x="2400" y="2070"/>
                            <mxPoint x="2400" y="1470"/>
                        </Array>
                    </mxGeometry>
                </mxCell>
                <mxCell id="2" value="database" style="shape=cylinder;whiteSpace=wrap;html=1;boundedLbl=1;backgroundOutline=1;fillColor=#a20025;strokeColor=#6F0000;fontColor=#ffffff;shadow=0;sketch=0;" parent="1" vertex="1">
                    <mxGeometry x="110" y="310" width="60" height="80" as="geometry"/>
                </mxCell>
                <mxCell id="60" style="edgeStyle=none;html=1;entryX=0.5;entryY=0;entryDx=0;entryDy=0;" parent="1" source="58" target="108" edge="1">
                    <mxGeometry relative="1" as="geometry">
                        <mxPoint x="-40" y="610" as="targetPoint"/>
                    </mxGeometry>
                </mxCell>
                <mxCell id="109" style="edgeStyle=none;html=1;entryX=0;entryY=0.5;entryDx=0;entryDy=0;strokeWidth=6;" parent="1" source="58" target="124" edge="1">
                    <mxGeometry relative="1" as="geometry">
                        <mxPoint x="309.9999999999998" y="460" as="targetPoint"/>
                    </mxGeometry>
                </mxCell>
                <mxCell id="161" value="&lt;font style=&quot;font-size: 25px&quot;&gt;&lt;b&gt;token&lt;/b&gt;&lt;/font&gt;" style="edgeLabel;html=1;align=center;verticalAlign=middle;resizable=0;points=[];" parent="109" vertex="1" connectable="0">
                    <mxGeometry x="0.1107" y="-1" relative="1" as="geometry">
                        <mxPoint x="-18" y="-1" as="offset"/>
                    </mxGeometry>
                </mxCell>
                <mxCell id="58" value="users" style="whiteSpace=wrap;html=1;shadow=0;sketch=0;fillColor=#1ba1e2;strokeColor=#006EAF;fontColor=#ffffff;" parent="1" vertex="1">
                    <mxGeometry x="-97.5" y="450" width="120" height="50" as="geometry"/>
                </mxCell>
                <mxCell id="108" value="&lt;ol&gt;&lt;li&gt;id&lt;span style=&quot;white-space: pre&quot;&gt;&#9;&lt;/span&gt;&lt;span style=&quot;white-space: pre&quot;&gt;&#9;&lt;/span&gt;&lt;span style=&quot;white-space: pre&quot;&gt;&#9;&lt;/span&gt;&lt;span style=&quot;white-space: pre&quot;&gt;&#9;&lt;/span&gt;(primary)&lt;/li&gt;&lt;li&gt;username&amp;nbsp;&amp;nbsp;&lt;span style=&quot;white-space: pre&quot;&gt;&#9;&lt;/span&gt;&lt;span style=&quot;white-space: pre&quot;&gt;&#9;&lt;/span&gt;(phone)&lt;/li&gt;&lt;li&gt;password&lt;span style=&quot;white-space: pre&quot;&gt;&#9;&lt;/span&gt;&lt;span style=&quot;white-space: pre&quot;&gt;&#9;&lt;/span&gt;&lt;span style=&quot;white-space: pre&quot;&gt;&#9;&lt;/span&gt;(hash)&lt;/li&gt;&lt;li&gt;phone&lt;span style=&quot;white-space: pre&quot;&gt;&#9;&lt;/span&gt;&lt;span style=&quot;white-space: pre&quot;&gt;&#9;&lt;/span&gt;&lt;span style=&quot;white-space: pre&quot;&gt;&#9;&lt;/span&gt;(uniqe)&lt;/li&gt;&lt;li&gt;&lt;span style=&quot;text-align: center&quot;&gt;email&lt;/span&gt;&lt;br&gt;&lt;/li&gt;&lt;li&gt;&lt;span style=&quot;text-align: center&quot;&gt;verify-code-mobile&lt;br&gt;&lt;/span&gt;&lt;/li&gt;&lt;li&gt;&lt;span style=&quot;text-align: center&quot;&gt;on mobile verified&lt;br&gt;&lt;/span&gt;&lt;/li&gt;&lt;li&gt;&lt;span style=&quot;text-align: center&quot;&gt;verify-code-email&lt;br&gt;&lt;/span&gt;&lt;/li&gt;&lt;li&gt;&lt;span style=&quot;text-align: center&quot;&gt;on email verified&lt;br&gt;&lt;/span&gt;&lt;/li&gt;&lt;li&gt;&lt;span style=&quot;text-align: center&quot;&gt;first name&lt;br&gt;&lt;/span&gt;&lt;/li&gt;&lt;li&gt;&lt;span style=&quot;text-align: center&quot;&gt;last name&lt;/span&gt;&lt;/li&gt;&lt;li&gt;&lt;span style=&quot;text-align: center&quot;&gt;last login dt&lt;/span&gt;&lt;/li&gt;&lt;li&gt;token&lt;span style=&quot;white-space: pre&quot;&gt;&#9;&lt;/span&gt;&lt;span style=&quot;white-space: pre&quot;&gt;&#9;&lt;/span&gt;&lt;span style=&quot;white-space: pre&quot;&gt;&#9;&lt;/span&gt;(uniqe)&lt;/li&gt;&lt;li&gt;change pass dt&lt;/li&gt;&lt;li&gt;recovery pass dt&lt;span style=&quot;white-space: pre&quot;&gt;&#9;&lt;/span&gt;(last used forgot pass)&lt;/li&gt;&lt;li&gt;is_admin&lt;span style=&quot;white-space: pre&quot;&gt;&#9;&lt;/span&gt;&lt;span style=&quot;white-space: pre&quot;&gt;&#9;&lt;/span&gt;&lt;span style=&quot;white-space: pre&quot;&gt;&#9;&lt;/span&gt;(admin panel)&lt;/li&gt;&lt;li&gt;type user&lt;span style=&quot;white-space: pre&quot;&gt;&#9;&lt;/span&gt;&lt;span style=&quot;white-space: pre&quot;&gt;&#9;&lt;/span&gt;&lt;span style=&quot;white-space: pre&quot;&gt;&#9;&lt;/span&gt;(DR, PATIENT)&lt;/li&gt;&lt;li&gt;status&lt;span style=&quot;white-space: pre&quot;&gt;&#9;&lt;/span&gt;&lt;span style=&quot;white-space: pre&quot;&gt;&#9;&lt;/span&gt;&lt;span style=&quot;white-space: pre&quot;&gt;&#9;&lt;/span&gt;(enable, disable)&lt;/li&gt;&lt;li&gt;is login&lt;/li&gt;&lt;li&gt;on created&lt;/li&gt;&lt;li&gt;on updated&lt;/li&gt;&lt;li&gt;deleted&lt;/li&gt;&lt;li&gt;on deleted&lt;/li&gt;&lt;/ol&gt;" style="text;strokeColor=#A50040;fillColor=#d80073;html=1;whiteSpace=wrap;verticalAlign=middle;overflow=hidden;shadow=0;sketch=0;fontColor=#ffffff;" parent="1" vertex="1">
                    <mxGeometry x="-185" y="580" width="295" height="490" as="geometry"/>
                </mxCell>
                <mxCell id="123" value="&lt;ol&gt;&lt;li&gt;id&lt;span style=&quot;white-space: pre&quot;&gt;&#9;&lt;/span&gt;&lt;span style=&quot;white-space: pre&quot;&gt;&#9;&lt;/span&gt;&lt;span style=&quot;white-space: pre&quot;&gt;&#9;&lt;/span&gt;(primary)&lt;/li&gt;&lt;li&gt;token&lt;span style=&quot;white-space: pre&quot;&gt;&#9;&lt;/span&gt;&lt;span style=&quot;white-space: pre&quot;&gt;&#9;&lt;/span&gt;(uniqe)&lt;/li&gt;&lt;li&gt;ip&lt;/li&gt;&lt;li&gt;expire&lt;/li&gt;&lt;li&gt;user agent&lt;/li&gt;&lt;li&gt;data&amp;nbsp;&lt;span style=&quot;white-space: pre&quot;&gt;&#9;&lt;/span&gt;&lt;span style=&quot;white-space: pre&quot;&gt;&#9;&lt;/span&gt;(BLOB)&lt;/li&gt;&lt;li&gt;on created&lt;/li&gt;&lt;li&gt;on updated&lt;/li&gt;&lt;/ol&gt;" style="text;strokeColor=#A50040;fillColor=#d80073;html=1;whiteSpace=wrap;verticalAlign=middle;overflow=hidden;shadow=0;sketch=0;fontColor=#ffffff;" parent="1" vertex="1">
                    <mxGeometry x="260" y="665" width="205" height="280" as="geometry"/>
                </mxCell>
                <mxCell id="126" style="edgeStyle=none;html=1;entryX=0.5;entryY=0;entryDx=0;entryDy=0;strokeWidth=4;" parent="1" source="124" target="123" edge="1">
                    <mxGeometry relative="1" as="geometry"/>
                </mxCell>
                <mxCell id="124" value="sessions" style="whiteSpace=wrap;html=1;shadow=0;sketch=0;fillColor=#1ba1e2;strokeColor=#006EAF;fontColor=#ffffff;" parent="1" vertex="1">
                    <mxGeometry x="302.5" y="450" width="120" height="50" as="geometry"/>
                </mxCell>
                <mxCell id="130" value="exams" style="whiteSpace=wrap;html=1;shadow=0;sketch=0;fillColor=#1ba1e2;strokeColor=#006EAF;fontColor=#ffffff;" parent="1" vertex="1">
                    <mxGeometry x="1720" y="1075" width="120" height="50" as="geometry"/>
                </mxCell>
                <mxCell id="178" style="edgeStyle=none;html=1;entryX=0;entryY=0.5;entryDx=0;entryDy=0;strokeWidth=4;" parent="1" source="131" target="174" edge="1">
                    <mxGeometry relative="1" as="geometry"/>
                </mxCell>
                <mxCell id="131" value="pages" style="whiteSpace=wrap;html=1;shadow=0;sketch=0;fillColor=#1ba1e2;strokeColor=#006EAF;fontColor=#ffffff;" parent="1" vertex="1">
                    <mxGeometry x="-80" y="1570" width="120" height="50" as="geometry"/>
                </mxCell>
                <mxCell id="170" style="edgeStyle=none;html=1;entryX=0;entryY=0.5;entryDx=0;entryDy=0;strokeWidth=4;" parent="1" source="132" target="168" edge="1">
                    <mxGeometry relative="1" as="geometry"/>
                </mxCell>
                <mxCell id="132" value="blog" style="whiteSpace=wrap;html=1;shadow=0;sketch=0;fillColor=#1ba1e2;strokeColor=#006EAF;fontColor=#ffffff;" parent="1" vertex="1">
                    <mxGeometry x="-80" y="1240" width="120" height="50" as="geometry"/>
                </mxCell>
                <mxCell id="154" style="edgeStyle=none;html=1;entryX=0.5;entryY=0;entryDx=0;entryDy=0;strokeWidth=4;" parent="1" source="133" target="153" edge="1">
                    <mxGeometry relative="1" as="geometry"/>
                </mxCell>
                <mxCell id="133" value="translate" style="whiteSpace=wrap;html=1;shadow=0;sketch=0;fillColor=#1ba1e2;strokeColor=#006EAF;fontColor=#ffffff;" parent="1" vertex="1">
                    <mxGeometry x="890" y="450" width="120" height="50" as="geometry"/>
                </mxCell>
                <mxCell id="151" style="edgeStyle=none;html=1;exitX=0.5;exitY=1;exitDx=0;exitDy=0;entryX=0.5;entryY=0;entryDx=0;entryDy=0;strokeWidth=4;" parent="1" source="134" target="150" edge="1">
                    <mxGeometry relative="1" as="geometry"/>
                </mxCell>
                <mxCell id="160" style="edgeStyle=none;html=1;entryX=0;entryY=0.5;entryDx=0;entryDy=0;strokeWidth=6;" parent="1" source="134" target="133" edge="1">
                    <mxGeometry relative="1" as="geometry"/>
                </mxCell>
                <mxCell id="162" value="&lt;font style=&quot;font-size: 25px&quot;&gt;&lt;b&gt;key&lt;/b&gt;&lt;/font&gt;" style="edgeLabel;html=1;align=center;verticalAlign=middle;resizable=0;points=[];" parent="160" vertex="1" connectable="0">
                    <mxGeometry x="0.3833" y="-2" relative="1" as="geometry">
                        <mxPoint x="-31" y="-2" as="offset"/>
                    </mxGeometry>
                </mxCell>
                <mxCell id="134" value="languages" style="whiteSpace=wrap;html=1;shadow=0;sketch=0;fillColor=#1ba1e2;strokeColor=#006EAF;fontColor=#ffffff;" parent="1" vertex="1">
                    <mxGeometry x="610" y="450" width="120" height="50" as="geometry"/>
                </mxCell>
                <mxCell id="156" style="edgeStyle=none;html=1;entryX=0.5;entryY=0;entryDx=0;entryDy=0;strokeWidth=4;" parent="1" source="135" target="155" edge="1">
                    <mxGeometry relative="1" as="geometry"/>
                </mxCell>
                <mxCell id="135" value="logs" style="whiteSpace=wrap;html=1;shadow=0;sketch=0;fillColor=#1ba1e2;strokeColor=#006EAF;fontColor=#ffffff;" parent="1" vertex="1">
                    <mxGeometry x="1170" y="450" width="120" height="50" as="geometry"/>
                </mxCell>
                <mxCell id="164" style="edgeStyle=none;html=1;entryX=0.5;entryY=0;entryDx=0;entryDy=0;strokeWidth=4;" parent="1" source="136" target="163" edge="1">
                    <mxGeometry relative="1" as="geometry"/>
                </mxCell>
                <mxCell id="182" style="edgeStyle=none;html=1;entryX=0;entryY=0.5;entryDx=0;entryDy=0;strokeWidth=6;" parent="1" source="136" target="137" edge="1">
                    <mxGeometry relative="1" as="geometry"/>
                </mxCell>
                <mxCell id="183" value="&lt;font style=&quot;font-size: 27px&quot;&gt;id -&amp;gt; payment_req_id&lt;/font&gt;" style="edgeLabel;html=1;align=center;verticalAlign=middle;resizable=0;points=[];" parent="182" vertex="1" connectable="0">
                    <mxGeometry x="-0.222" y="-1" relative="1" as="geometry">
                        <mxPoint x="12" y="54" as="offset"/>
                    </mxGeometry>
                </mxCell>
                <mxCell id="136" value="payment request" style="whiteSpace=wrap;html=1;shadow=0;sketch=0;fillColor=#1ba1e2;strokeColor=#006EAF;fontColor=#ffffff;" parent="1" vertex="1">
                    <mxGeometry x="1440" y="450" width="120" height="50" as="geometry"/>
                </mxCell>
                <mxCell id="176" style="edgeStyle=none;html=1;entryX=0.5;entryY=0;entryDx=0;entryDy=0;strokeWidth=4;" parent="1" source="137" target="175" edge="1">
                    <mxGeometry relative="1" as="geometry"/>
                </mxCell>
                <mxCell id="137" value="payment tracks" style="whiteSpace=wrap;html=1;shadow=0;sketch=0;fillColor=#1ba1e2;strokeColor=#006EAF;fontColor=#ffffff;" parent="1" vertex="1">
                    <mxGeometry x="1760" y="450" width="120" height="50" as="geometry"/>
                </mxCell>
                <mxCell id="187" style="edgeStyle=none;html=1;entryX=0.5;entryY=0;entryDx=0;entryDy=0;" edge="1" parent="1" source="139" target="186">
                    <mxGeometry relative="1" as="geometry"/>
                </mxCell>
                <mxCell id="139" value="contact us messages" style="whiteSpace=wrap;html=1;shadow=0;sketch=0;fillColor=#1ba1e2;strokeColor=#006EAF;fontColor=#ffffff;" parent="1" vertex="1">
                    <mxGeometry x="2130" y="450" width="120" height="50" as="geometry"/>
                </mxCell>
                <mxCell id="140" value="reservetion" style="whiteSpace=wrap;html=1;shadow=0;sketch=0;fillColor=#1ba1e2;strokeColor=#006EAF;fontColor=#ffffff;" parent="1" vertex="1">
                    <mxGeometry x="1720" y="1820" width="120" height="50" as="geometry"/>
                </mxCell>
                <mxCell id="150" value="&lt;ol&gt;&lt;li&gt;id&lt;span style=&quot;white-space: pre&quot;&gt;&#9;&lt;/span&gt;&lt;span style=&quot;white-space: pre&quot;&gt;&#9;&lt;/span&gt;&lt;span style=&quot;white-space: pre&quot;&gt;&#9;&lt;/span&gt;&lt;span style=&quot;white-space: pre&quot;&gt;&#9;&lt;/span&gt;(primary)&lt;/li&gt;&lt;li&gt;language&lt;/li&gt;&lt;li&gt;key&lt;/li&gt;&lt;li&gt;status&lt;span style=&quot;white-space: pre&quot;&gt;&#9;&lt;/span&gt;&lt;span style=&quot;white-space: pre&quot;&gt;&#9;&lt;/span&gt;&lt;span style=&quot;white-space: pre&quot;&gt;&#9;&lt;/span&gt;(enable,disable)&lt;/li&gt;&lt;li&gt;on created&lt;/li&gt;&lt;li&gt;on updated&lt;/li&gt;&lt;/ol&gt;" style="text;strokeColor=#A50040;fillColor=#d80073;html=1;whiteSpace=wrap;verticalAlign=middle;overflow=hidden;shadow=0;sketch=0;fontColor=#ffffff;" parent="1" vertex="1">
                    <mxGeometry x="543.75" y="660" width="252.5" height="170" as="geometry"/>
                </mxCell>
                <mxCell id="153" value="&lt;ol&gt;&lt;li&gt;id&lt;span style=&quot;white-space: pre&quot;&gt;&#9;&lt;/span&gt;&lt;span style=&quot;white-space: pre&quot;&gt;&#9;&lt;/span&gt;&lt;span style=&quot;white-space: pre&quot;&gt;&#9;&lt;/span&gt;&lt;span style=&quot;white-space: pre&quot;&gt;&#9;&lt;/span&gt;(primary)&lt;/li&gt;&lt;li&gt;key&lt;/li&gt;&lt;li&gt;translate&lt;/li&gt;&lt;li&gt;type&lt;span style=&quot;white-space: pre&quot;&gt;&#9;&lt;/span&gt;&lt;span style=&quot;white-space: pre&quot;&gt;&#9;&lt;/span&gt;&lt;span style=&quot;white-space: pre&quot;&gt;&#9;&lt;/span&gt;&lt;span style=&quot;white-space: pre&quot;&gt;&#9;&lt;/span&gt;(alert,all)&lt;/li&gt;&lt;li&gt;on created&lt;/li&gt;&lt;li&gt;on updated&lt;/li&gt;&lt;/ol&gt;" style="text;strokeColor=#A50040;fillColor=#d80073;html=1;whiteSpace=wrap;verticalAlign=middle;overflow=hidden;shadow=0;sketch=0;fontColor=#ffffff;" parent="1" vertex="1">
                    <mxGeometry x="847.5" y="660" width="205" height="170" as="geometry"/>
                </mxCell>
                <mxCell id="155" value="&lt;ol&gt;&lt;li&gt;&lt;span style=&quot;font-weight: normal&quot;&gt;id&lt;span style=&quot;white-space: pre&quot;&gt;&#9;&lt;/span&gt;&lt;span style=&quot;white-space: pre&quot;&gt;&#9;&lt;/span&gt;&lt;span style=&quot;white-space: pre&quot;&gt;&#9;&lt;/span&gt;&lt;span style=&quot;white-space: pre&quot;&gt;&#9;&lt;/span&gt;(primary)&lt;/span&gt;&lt;/li&gt;&lt;li&gt;&lt;span style=&quot;font-weight: normal&quot;&gt;user_id&lt;/span&gt;&lt;/li&gt;&lt;li&gt;&lt;span style=&quot;font-weight: normal&quot;&gt;data&lt;span style=&quot;white-space: pre&quot;&gt;&#9;&lt;/span&gt;&lt;span style=&quot;white-space: pre&quot;&gt;&#9;&lt;/span&gt;&lt;span style=&quot;white-space: pre&quot;&gt;&#9;&lt;/span&gt;&lt;span style=&quot;white-space: pre&quot;&gt;&#9;&lt;/span&gt;(json)&lt;/span&gt;&lt;/li&gt;&lt;li&gt;&lt;span style=&quot;font-weight: normal&quot;&gt;on created&lt;/span&gt;&lt;/li&gt;&lt;li&gt;&lt;span style=&quot;font-weight: normal&quot;&gt;on updated&lt;/span&gt;&lt;/li&gt;&lt;/ol&gt;" style="text;strokeColor=#A50040;fillColor=#d80073;html=1;whiteSpace=wrap;verticalAlign=middle;overflow=hidden;shadow=0;sketch=0;fontColor=#ffffff;fontStyle=1" parent="1" vertex="1">
                    <mxGeometry x="1127.5" y="660" width="205" height="140" as="geometry"/>
                </mxCell>
                <mxCell id="163" value="&lt;ol&gt;&lt;li&gt;&lt;span style=&quot;font-weight: normal&quot;&gt;id&lt;span style=&quot;white-space: pre&quot;&gt;&#9;&lt;/span&gt;&lt;span style=&quot;white-space: pre&quot;&gt;&#9;&lt;/span&gt;&lt;span style=&quot;white-space: pre&quot;&gt;&#9;&lt;/span&gt;&lt;span style=&quot;white-space: pre&quot;&gt;&#9;&lt;span style=&quot;white-space: pre&quot;&gt;&#9;&lt;/span&gt;&lt;/span&gt;(primary)&lt;/span&gt;&lt;/li&gt;&lt;li&gt;&lt;span style=&quot;font-weight: normal&quot;&gt;user_id&lt;/span&gt;&lt;/li&gt;&lt;li&gt;&lt;span style=&quot;font-weight: normal&quot;&gt;amount&lt;/span&gt;&lt;/li&gt;&lt;li&gt;&lt;span style=&quot;font-weight: normal&quot;&gt;order_id(res_num)&lt;/span&gt;&lt;/li&gt;&lt;li&gt;&lt;span style=&quot;font-weight: normal&quot;&gt;time&lt;/span&gt;&lt;/li&gt;&lt;li&gt;&lt;span style=&quot;font-weight: normal&quot;&gt;on created&lt;/span&gt;&lt;/li&gt;&lt;li&gt;&lt;span style=&quot;font-weight: normal&quot;&gt;on updated&lt;/span&gt;&lt;/li&gt;&lt;/ol&gt;" style="text;strokeColor=#A50040;fillColor=#d80073;html=1;whiteSpace=wrap;verticalAlign=middle;overflow=hidden;shadow=0;sketch=0;fontColor=#ffffff;fontStyle=1" parent="1" vertex="1">
                    <mxGeometry x="1383.75" y="660" width="232.5" height="180" as="geometry"/>
                </mxCell>
                <mxCell id="167" style="edgeStyle=none;html=1;exitX=0.5;exitY=0;exitDx=0;exitDy=0;entryX=0;entryY=0.398;entryDx=0;entryDy=0;entryPerimeter=0;strokeWidth=4;" parent="1" source="166" target="132" edge="1">
                    <mxGeometry relative="1" as="geometry"/>
                </mxCell>
                <mxCell id="173" style="edgeStyle=none;html=1;exitX=0.75;exitY=1;exitDx=0;exitDy=0;entryX=0.009;entryY=0.609;entryDx=0;entryDy=0;entryPerimeter=0;strokeWidth=4;" parent="1" source="166" target="131" edge="1">
                    <mxGeometry relative="1" as="geometry"/>
                </mxCell>
                <mxCell id="166" value="&lt;font style=&quot;font-size: 25px&quot; color=&quot;#ffffff&quot;&gt;&lt;b&gt;&lt;i style=&quot;background-color: rgb(0 , 0 , 255)&quot;&gt;public view&lt;/i&gt;&lt;/b&gt;&lt;/font&gt;" style="shape=curlyBracket;whiteSpace=wrap;html=1;rounded=1;size=0;strokeWidth=8;" parent="1" vertex="1">
                    <mxGeometry x="-270" y="1260" width="20" height="340" as="geometry"/>
                </mxCell>
                <mxCell id="168" value="&lt;ol&gt;&lt;li&gt;id&lt;span&gt;&#9;&lt;/span&gt;&lt;span&gt;&#9;&lt;/span&gt;&lt;span&gt;&#9;&lt;/span&gt;(primary)&lt;/li&gt;&lt;li&gt;title&lt;/li&gt;&lt;li&gt;uniqe image&lt;/li&gt;&lt;li&gt;excerpt&lt;/li&gt;&lt;li&gt;view&lt;/li&gt;&lt;li&gt;content&lt;/li&gt;&lt;li&gt;on created&lt;/li&gt;&lt;li&gt;on updated&lt;/li&gt;&lt;li&gt;deleted&lt;/li&gt;&lt;li&gt;on deleted&lt;/li&gt;&lt;/ol&gt;&lt;div&gt;&lt;/div&gt;" style="text;strokeColor=#A50040;fillColor=#d80073;html=1;whiteSpace=wrap;verticalAlign=middle;overflow=hidden;shadow=0;sketch=0;fontColor=#ffffff;" parent="1" vertex="1">
                    <mxGeometry x="160" y="1125" width="205" height="280" as="geometry"/>
                </mxCell>
                <mxCell id="174" value="&lt;ol&gt;&lt;li&gt;id&lt;span&gt;&#9;&lt;/span&gt;&lt;span&gt;&#9;&lt;/span&gt;&lt;span&gt;&#9;&lt;/span&gt;(primary)&lt;/li&gt;&lt;li&gt;title&lt;/li&gt;&lt;li&gt;uniqe image&lt;/li&gt;&lt;li&gt;view&lt;/li&gt;&lt;li&gt;content&lt;/li&gt;&lt;li&gt;on created&lt;/li&gt;&lt;li&gt;on updated&lt;/li&gt;&lt;li&gt;deleted&lt;/li&gt;&lt;li&gt;on deleted&lt;/li&gt;&lt;/ol&gt;&lt;div&gt;&lt;/div&gt;" style="text;strokeColor=#A50040;fillColor=#d80073;html=1;whiteSpace=wrap;verticalAlign=middle;overflow=hidden;shadow=0;sketch=0;fontColor=#ffffff;" parent="1" vertex="1">
                    <mxGeometry x="160" y="1455" width="205" height="280" as="geometry"/>
                </mxCell>
                <mxCell id="175" value="&lt;ol&gt;&lt;li&gt;&lt;span style=&quot;font-weight: normal&quot;&gt;id&lt;span style=&quot;white-space: pre&quot;&gt;&#9;&lt;/span&gt;&lt;span style=&quot;white-space: pre&quot;&gt;&#9;&lt;/span&gt;&lt;span style=&quot;white-space: pre&quot;&gt;&#9;&lt;/span&gt;&lt;span style=&quot;white-space: pre&quot;&gt;&#9;&lt;span style=&quot;white-space: pre&quot;&gt;&#9;&lt;/span&gt;&lt;/span&gt;(primary)&lt;/span&gt;&lt;/li&gt;&lt;li&gt;&lt;span style=&quot;font-weight: normal&quot;&gt;payment_req_id&lt;/span&gt;&lt;/li&gt;&lt;li&gt;&lt;span style=&quot;font-weight: normal&quot;&gt;user_id&lt;/span&gt;&lt;/li&gt;&lt;li&gt;&lt;span style=&quot;font-weight: normal&quot;&gt;amount&lt;/span&gt;&lt;/li&gt;&lt;li&gt;&lt;span style=&quot;font-weight: normal&quot;&gt;order_id(res_num)&lt;/span&gt;&lt;/li&gt;&lt;li&gt;&lt;span style=&quot;font-weight: normal&quot;&gt;track id&lt;/span&gt;&lt;/li&gt;&lt;li&gt;&lt;span style=&quot;font-weight: normal&quot;&gt;time&lt;/span&gt;&lt;/li&gt;&lt;li&gt;&lt;span style=&quot;font-weight: normal&quot;&gt;on created&lt;/span&gt;&lt;/li&gt;&lt;li&gt;&lt;span style=&quot;font-weight: normal&quot;&gt;on updated&lt;/span&gt;&lt;/li&gt;&lt;/ol&gt;" style="text;strokeColor=#A50040;fillColor=#d80073;html=1;whiteSpace=wrap;verticalAlign=middle;overflow=hidden;shadow=0;sketch=0;fontColor=#ffffff;fontStyle=1" parent="1" vertex="1">
                    <mxGeometry x="1703.75" y="660" width="232.5" height="210" as="geometry"/>
                </mxCell>
                <mxCell id="186" value="&lt;ol&gt;&lt;li&gt;&lt;span style=&quot;font-weight: normal&quot;&gt;id&lt;span style=&quot;white-space: pre&quot;&gt;&#9;&lt;/span&gt;&lt;span style=&quot;white-space: pre&quot;&gt;&#9;&lt;/span&gt;&lt;span style=&quot;white-space: pre&quot;&gt;&#9;&lt;/span&gt;&lt;span style=&quot;white-space: pre&quot;&gt;&#9;&lt;span style=&quot;white-space: pre&quot;&gt;&#9;&lt;/span&gt;&lt;/span&gt;(primary)&lt;/span&gt;&lt;/li&gt;&lt;li&gt;&lt;span style=&quot;font-weight: normal&quot;&gt;full name&lt;/span&gt;&lt;/li&gt;&lt;li&gt;&lt;span style=&quot;font-weight: normal&quot;&gt;email&lt;/span&gt;&lt;/li&gt;&lt;li&gt;&lt;span style=&quot;font-weight: normal&quot;&gt;phone&lt;/span&gt;&lt;/li&gt;&lt;li&gt;&lt;span style=&quot;font-weight: normal&quot;&gt;subject&lt;/span&gt;&lt;/li&gt;&lt;li&gt;&lt;span style=&quot;font-weight: 400&quot;&gt;message&lt;/span&gt;&lt;/li&gt;&lt;li&gt;&lt;span style=&quot;font-weight: normal&quot;&gt;on created&lt;/span&gt;&lt;/li&gt;&lt;li&gt;&lt;span style=&quot;font-weight: normal&quot;&gt;on updated&lt;/span&gt;&lt;/li&gt;&lt;li&gt;&lt;span style=&quot;font-weight: normal&quot;&gt;deleted&lt;/span&gt;&lt;/li&gt;&lt;li&gt;&lt;span style=&quot;font-weight: normal&quot;&gt;on deleted&lt;/span&gt;&lt;/li&gt;&lt;/ol&gt;" style="text;strokeColor=#A50040;fillColor=#d80073;html=1;whiteSpace=wrap;verticalAlign=middle;overflow=hidden;shadow=0;sketch=0;fontColor=#ffffff;fontStyle=1" vertex="1" parent="1">
                    <mxGeometry x="2073.75" y="660" width="232.5" height="230" as="geometry"/>
                </mxCell>
                <mxCell id="189" value="" style="shape=curlyBracket;whiteSpace=wrap;html=1;rounded=1;flipH=1;strokeWidth=6;" vertex="1" parent="1">
                    <mxGeometry x="1920" y="1100" width="90" height="740" as="geometry"/>
                </mxCell>
                <mxCell id="195" value="" style="endArrow=classic;html=1;entryX=1;entryY=0.5;entryDx=0;entryDy=0;exitX=0.989;exitY=0;exitDx=0;exitDy=0;exitPerimeter=0;strokeWidth=6;" edge="1" parent="1" source="189" target="130">
                    <mxGeometry width="50" height="50" relative="1" as="geometry">
                        <mxPoint x="1870" y="1180" as="sourcePoint"/>
                        <mxPoint x="1920" y="1130" as="targetPoint"/>
                    </mxGeometry>
                </mxCell>
                <mxCell id="197" value="" style="endArrow=classic;html=1;strokeWidth=6;entryX=1.014;entryY=0.421;entryDx=0;entryDy=0;entryPerimeter=0;" edge="1" parent="1" target="140">
                    <mxGeometry width="50" height="50" relative="1" as="geometry">
                        <mxPoint x="1920" y="1840" as="sourcePoint"/>
                        <mxPoint x="1930" y="1870" as="targetPoint"/>
                    </mxGeometry>
                </mxCell>
            </root>
        </mxGraphModel>
    </diagram>
</mxfile>